<svg width="200" height="40" viewBox="0 0 200 40" fill="none" xmlns="http://www.w3.org/2000/svg">
<g clip-path="url(#clip0_56_11559)">
<path d="M12.6516 16.8083L20.4041 9.04061L28.1608 16.8124L32.6718 12.2925L20.4041 0L8.14062 12.2883L12.6516 16.8083Z" fill="#1E2457" fill-opacity="0.5"/>
<path d="M9.46597 19.9994L4.95508 15.4795L0.443965 19.9996L4.95486 24.5195L9.46597 19.9994Z" fill="#1E2457" fill-opacity="0.5"/>
<path d="M12.6524 23.1918L20.4049 30.9595L28.1612 23.188L32.6747 27.7054L32.6725 27.708L20.4049 40.0001L8.14107 27.7121L8.13477 27.7058L12.6524 23.1918Z" fill="#1E2457" fill-opacity="0.5"/>
<path d="M35.8541 24.5216L40.3652 20.0015L35.8543 15.4816L31.3432 20.0017L35.8541 24.5216Z" fill="#1E2457" fill-opacity="0.5"/>
<path d="M24.9815 19.9978H24.9834L20.4059 15.4111L17.023 18.8007H17.0227L16.6343 19.1903L15.8325 19.9937L15.8262 20L15.8325 20.0066L20.4059 24.5892L24.9834 20.0025L24.9856 20L24.9815 19.9978Z" fill="#1E2457" fill-opacity="0.5"/>
<path d="M47.3984 9.69238H57.2096C59.6446 9.69238 61.486 10.3186 62.7339 11.5709C63.6997 12.5408 64.1824 13.7429 64.1824 15.1769V15.2376C64.1824 15.8435 64.1077 16.379 63.9573 16.8434C63.8072 17.3085 63.6066 17.7271 63.356 18.1008C63.106 18.4749 62.8153 18.8031 62.4848 19.0856C62.1541 19.3686 61.7987 19.6113 61.4182 19.8128C62.6422 20.2779 63.6057 20.9088 64.3082 21.7068C65.0104 22.5052 65.3619 23.6112 65.3619 25.025V25.0854C65.3619 26.0553 65.1759 26.9035 64.8035 27.6311C64.4312 28.3581 63.8977 28.9643 63.2031 29.4493C62.5085 29.9342 61.6732 30.2975 60.6971 30.5402C59.7209 30.7825 58.6391 30.9035 57.452 30.9035H47.3984V9.69238ZM56.2287 18.2676C57.2572 18.2676 58.0738 18.0913 58.6782 17.7375C59.283 17.384 59.5853 16.8131 59.5853 16.0255V15.9648C59.5853 15.2581 59.323 14.7179 58.799 14.3438C58.2746 13.9701 57.5186 13.783 56.531 13.783H51.9343V18.2676H56.2287ZM57.4687 26.8132C58.4969 26.8132 59.3028 26.6268 59.888 26.2527C60.4726 25.879 60.7652 25.298 60.7652 24.5101V24.4497C60.7652 23.7427 60.4928 23.1822 59.9486 22.7677C59.404 22.3542 58.5272 22.1469 57.3174 22.1469H51.9343V26.8135L57.4687 26.8132Z" fill="#1E2457" fill-opacity="0.5"/>
<path d="M71.2051 9.69238H75.8627V30.9041H71.2051V9.69238Z" fill="#1E2457" fill-opacity="0.5"/>
<path d="M82.916 9.69238H87.2097L97.1293 22.7529V9.69238H101.726V30.9041H97.7647L87.5124 17.4197V30.9041H82.916V9.69238Z" fill="#1E2457" fill-opacity="0.5"/>
<path d="M115.827 9.54102H120.121L129.194 30.9041H124.325L122.39 26.1468H113.438L111.503 30.9041H106.754L115.827 9.54102ZM120.726 22.0252L117.914 15.1468L115.102 22.0252H120.726Z" fill="#1E2457" fill-opacity="0.5"/>
<path d="M134.221 9.69238H138.515L148.434 22.7529V9.69238H153.031V30.9041H149.07L138.817 17.4197V30.9041H134.221V9.69238Z" fill="#1E2457" fill-opacity="0.5"/>
<path d="M169.793 31.2673C168.239 31.2673 166.798 30.9842 165.468 30.419C164.137 29.8538 162.988 29.0808 162.02 28.1008C161.052 27.1211 160.296 25.9644 159.752 24.6312C159.208 23.2977 158.936 21.8735 158.936 20.3583V20.298C158.936 18.7828 159.208 17.3639 159.752 16.0405C160.296 14.7174 161.052 13.5557 162.02 12.5558C162.987 11.5559 164.147 10.7677 165.498 10.192C166.848 9.61642 168.341 9.32861 169.974 9.32861C170.961 9.32861 171.863 9.40981 172.68 9.57093C173.496 9.733 174.237 9.95478 174.903 10.2375C175.568 10.5206 176.183 10.864 176.748 11.2678C177.311 11.6722 177.836 12.1164 178.32 12.6013L175.357 16.0253C174.529 15.2782 173.688 14.6918 172.831 14.2678C171.974 13.8439 171.012 13.6316 169.943 13.6316C169.056 13.6316 168.234 13.8034 167.479 14.1468C166.723 14.4902 166.072 14.9648 165.528 15.5707C164.984 16.1767 164.56 16.879 164.257 17.6767C163.956 18.4751 163.805 19.3284 163.805 20.2373V20.2976C163.805 21.2066 163.956 22.0656 164.257 22.8731C164.56 23.6816 164.978 24.3883 165.513 24.9942C166.047 25.6002 166.692 26.0804 167.448 26.4339C168.205 26.7878 169.036 26.964 169.943 26.964C171.153 26.964 172.176 26.7419 173.012 26.2974C173.849 25.8536 174.681 25.2473 175.508 24.4793L178.471 27.4793C177.927 28.0654 177.362 28.5908 176.778 29.0549C176.193 29.5199 175.553 29.9186 174.857 30.2522C174.162 30.5852 173.4 30.8383 172.574 31.0095C171.747 31.1811 170.82 31.2673 169.793 31.2673Z" fill="#1E2457" fill-opacity="0.5"/>
<path d="M183.953 9.69238H199.89V13.844H188.55V18.1469H198.53V22.2982H188.55V26.7528H200.042V30.9041H183.953V9.69238Z" fill="#1E2457" fill-opacity="0.5"/>
</g>
<defs>
<clipPath id="clip0_56_11559">
<rect width="199.273" height="40" fill="white" transform="translate(0.617188)"/>
</clipPath>
</defs>
</svg>
