<svg width="53" height="52" viewBox="0 0 53 52" fill="none" xmlns="http://www.w3.org/2000/svg">
<g clip-path="url(#clip0_56_11542)">
<path d="M51.4955 32.2895C48.0226 46.2182 33.9135 54.695 19.9816 51.2216C6.05547 47.7491 -2.42222 33.6407 1.05219 19.7131C4.52354 5.7829 18.6326 -2.69448 32.5603 0.778009C46.4912 4.2505 54.9683 18.3604 51.4951 32.2898L51.4953 32.2895H51.4955Z" fill="#1E2457" fill-opacity="0.5"/>
<path d="M37.7395 22.2957C38.257 18.8357 35.6225 16.9758 32.02 15.7351L33.1887 11.0481L30.3353 10.3372L29.1976 14.9007C28.4475 14.7137 27.6771 14.5374 26.9115 14.3627L28.0574 9.76902L25.2058 9.05811L24.0365 13.7435C23.4157 13.6022 22.806 13.4625 22.2145 13.3153L22.2178 13.3006L18.2829 12.3181L17.5239 15.3654C17.5239 15.3654 19.6409 15.8506 19.5962 15.8804C20.7517 16.1688 20.9607 16.9336 20.926 17.5398L19.5947 22.8793C19.6743 22.8995 19.7775 22.9287 19.8914 22.9745C19.7962 22.9509 19.6949 22.9251 19.5898 22.8999L17.7238 30.3798C17.5826 30.7308 17.2242 31.2575 16.4163 31.0575C16.4449 31.0989 14.3424 30.54 14.3424 30.54L12.9258 33.8059L16.639 34.7314C17.3298 34.9046 18.0067 35.0859 18.6734 35.2563L17.4926 39.997L20.3427 40.7079L21.512 36.0175C22.2906 36.2289 23.0462 36.4238 23.786 36.6076L22.6206 41.2758L25.4741 41.9868L26.6547 37.255C31.5204 38.1757 35.1789 37.8045 36.7189 33.404C37.9598 29.8611 36.6571 27.8176 34.0973 26.485C35.9617 26.055 37.3661 24.8289 37.7405 22.2961L37.7396 22.2955L37.7395 22.2957ZM31.2202 31.4365C30.3383 34.9794 24.3725 33.0642 22.4383 32.5839L24.0052 26.3034C25.9393 26.7862 32.1418 27.7416 31.2203 31.4365H31.2202ZM32.1026 22.2444C31.2982 25.467 26.3328 23.8298 24.722 23.4283L26.1426 17.7322C27.7534 18.1337 32.9406 18.883 32.1029 22.2444H32.1026Z" fill="white"/>
</g>
<defs>
<clipPath id="clip0_56_11542">
<rect width="52" height="52" fill="white" transform="translate(0.273438)"/>
</clipPath>
</defs>
</svg>
