<svg width="162" height="44" viewBox="0 0 162 44" fill="none" xmlns="http://www.w3.org/2000/svg">
<path d="M22.0078 44C34.1581 44 44.0078 34.1503 44.0078 22C44.0078 9.84973 34.1581 0 22.0078 0C9.85755 0 0.0078125 9.84973 0.0078125 22C0.0078125 34.1503 9.85755 44 22.0078 44Z" fill="#1E2457" fill-opacity="0.5"/>
<path d="M24.3532 24.0299V24.0264C24.2011 24.037 23.4159 24.083 21.6686 24.083C20.2715 24.083 19.2918 24.0441 18.9451 24.0264V24.0299C13.5725 23.793 9.56507 22.8592 9.56507 21.738C9.56507 20.6203 13.576 19.683 18.9451 19.446V23.0997C19.2953 23.1245 20.3033 23.1846 21.6934 23.1846C23.3628 23.1846 24.1975 23.1139 24.3532 23.0997V19.4496C29.7152 19.6901 33.712 20.6238 33.712 21.7415C33.712 22.8592 29.7117 23.793 24.3532 24.0335M24.3532 19.0711V15.8029H31.8339V10.8193H11.468V15.8029H18.9487V19.0711C12.8686 19.3505 8.29883 20.5531 8.29883 21.9962C8.29883 23.4393 12.8721 24.6418 18.9487 24.9248V35.4013H24.3567V24.9248C30.4262 24.6454 34.9889 23.4428 34.9889 21.9997C34.9889 20.5602 30.4262 19.3541 24.3567 19.0746" fill="white"/>
<path d="M62.696 12.1814V17.4657H67.8317V21.4306H62.6606V29.4702C62.6606 31.2457 63.6404 32.1123 65.0764 32.1123C65.7944 32.1123 66.6256 31.8859 67.3047 31.5464L68.5886 35.4724C67.2693 35.9994 66.1729 36.2258 64.7758 36.2647C60.7365 36.4168 58.0944 34.1142 58.0944 29.4702V21.4306H54.6211V17.4657H58.0944V12.6731L62.696 12.1814ZM151.237 17.2181L151.577 19.3686C153.013 17.066 154.937 16.7264 156.826 16.7264C158.75 16.7264 160.6 17.4798 161.618 18.4985L159.542 22.4988C158.598 21.7065 157.731 21.2892 156.221 21.2892C153.805 21.2892 151.577 22.5731 151.577 26.0075V35.8226H146.972V17.211L151.237 17.2181ZM139.951 24.3522C139.65 21.9364 137.761 20.7268 135.119 20.7268C132.629 20.7268 130.588 21.9364 129.909 24.3522H139.951ZM129.835 28.165C130.136 30.4676 132.137 32.13 135.384 32.13C137.082 32.13 139.31 31.4863 140.368 30.3933L143.311 33.3007C141.348 35.338 138.14 36.3213 135.307 36.3213C128.891 36.3213 125.074 32.3564 125.074 26.393C125.074 20.7303 128.926 16.6522 134.967 16.6522C141.196 16.6522 145.086 20.5039 144.368 28.165H129.835ZM109.526 9.40137V19.7435C111.188 17.593 113.225 16.9493 115.34 16.9493C120.625 16.9493 122.966 20.5358 122.966 26.011V35.8261H118.361V26.0499C118.361 22.6509 116.585 21.2184 114.131 21.2184C111.411 21.2184 109.526 23.521 109.526 26.3152V35.8297H104.92V9.4049L109.526 9.40137ZM97.2947 11.9692V17.2535H102.43V21.2184H97.2594V29.258C97.2594 31.0335 98.2426 31.9001 99.6751 31.9001C100.393 31.9001 101.224 31.6737 101.903 31.3342L103.187 35.2602C101.868 35.7872 100.772 36.0136 99.3745 36.0525C95.3352 36.2046 92.6931 33.8985 92.6931 29.258V21.2184H89.2198V17.2535H92.6931V12.4609L97.2947 11.9692ZM84.5722 24.3522C84.2716 21.9364 82.3828 20.7268 79.7407 20.7268C77.2507 20.7268 75.2098 21.9364 74.5307 24.3522H84.5722ZM74.4565 28.165C74.7571 30.4676 76.759 32.13 80.006 32.13C81.7037 32.13 83.932 31.4863 84.9896 30.3933L87.9324 33.3007C85.9693 35.338 82.7613 36.3213 79.9282 36.3213C73.5086 36.3213 69.6957 32.3564 69.6957 26.393C69.6957 20.7303 73.5475 16.6522 79.5851 16.6522C85.8137 16.6522 89.7008 20.5039 88.9864 28.165H74.4565Z" fill="#1E2457" fill-opacity="0.5"/>
</svg>
