<svg width="164" height="40" viewBox="0 0 164 40" fill="none" xmlns="http://www.w3.org/2000/svg">
<path d="M48.1835 9.73325H49.5117C49.8497 9.73325 50.1248 10.0078 50.1248 10.345V22.2117C50.1248 25.9607 52.1604 28.3293 55.9486 28.3293C59.7368 28.3293 61.7724 25.9607 61.7724 22.2117V10.345C61.7724 10.0078 62.0474 9.73325 62.3854 9.73325H63.7136C64.0516 9.73325 64.3267 10.0078 64.3267 10.345V22.2431C64.3267 27.3489 61.5209 30.6038 55.9486 30.6038C50.3763 30.6038 47.5705 27.3176 47.5705 22.2744V10.345C47.5626 10.0078 47.8377 9.73325 48.1835 9.73325ZM68.2406 25.898C68.4371 25.647 68.8144 25.6234 69.0423 25.8431C70.4177 27.1764 72.4768 28.3293 75.0861 28.3293C78.7486 28.3293 79.9197 26.3607 79.9197 24.7921C79.9197 22.3293 77.4282 21.6548 74.7168 20.9176C71.4237 20.0548 67.7534 19.1372 67.7534 15.1058C67.7534 11.7254 70.7714 9.41952 74.8111 9.41952C77.7112 9.41952 80.0061 10.3058 81.6959 11.8666C81.9395 12.0862 81.9631 12.4627 81.7509 12.7136L80.9492 13.694C80.7528 13.9372 80.3912 13.9529 80.1633 13.7411C78.6622 12.3372 76.6816 11.694 74.6225 11.694C72.1546 11.694 70.402 13.0195 70.402 14.9489C70.402 17.0117 72.7755 17.6235 75.3927 18.3293C78.7486 19.2235 82.5683 20.2666 82.5683 24.5725C82.5683 27.5529 80.5327 30.596 74.9918 30.596C71.6752 30.596 69.1759 29.4274 67.4783 27.7333C67.2582 27.5136 67.2346 27.1607 67.4311 26.9176L68.2406 25.898ZM85.6099 10.345C85.6099 10.0078 85.8849 9.73325 86.2229 9.73325H92.6283C99.0022 9.73325 103.168 14.1882 103.168 19.9999C103.168 25.8431 99.0101 30.2352 92.6283 30.2352H86.2229C85.8849 30.2352 85.6099 29.9607 85.6099 29.6235V10.345ZM92.6361 27.9607C97.6268 27.9607 100.519 24.3921 100.519 19.9999C100.519 15.5685 97.7133 12.0078 92.6361 12.0078H88.172V27.9607H92.6361ZM128.734 22.7999C128.734 18.494 131.571 15.0195 136.098 15.0195C140.625 15.0195 143.463 18.494 143.463 22.7999C143.463 27.1058 140.625 30.6117 136.098 30.6117C131.571 30.6117 128.734 27.098 128.734 22.7999ZM141.026 22.7999C141.026 19.7882 139.274 17.0823 136.098 17.0823C132.923 17.0823 131.139 19.7882 131.139 22.7999C131.139 25.8431 132.923 28.5489 136.098 28.5489C139.274 28.5489 141.026 25.8431 141.026 22.7999ZM145.679 11.3333C145.679 10.4705 146.386 9.79599 147.219 9.79599C148.084 9.79599 148.791 10.4705 148.791 11.3333C148.791 12.196 148.084 12.9019 147.219 12.9019C146.386 12.9019 145.679 12.1882 145.679 11.3333ZM146.693 15.3882H147.77C148.108 15.3882 148.383 15.6627 148.383 15.9999V29.6235C148.383 29.9607 148.108 30.2352 147.77 30.2352H146.693C146.355 30.2352 146.08 29.9607 146.08 29.6235V15.9999C146.08 15.6627 146.355 15.3882 146.693 15.3882ZM161.696 20.5254C161.696 17.9136 160.368 17.0823 158.372 17.0823C156.556 17.0823 154.827 18.1882 153.963 19.3882V29.6235C153.963 29.9607 153.688 30.2352 153.35 30.2352H152.273C151.935 30.2352 151.66 29.9607 151.66 29.6235V15.9999C151.66 15.6627 151.935 15.3882 152.273 15.3882H153.35C153.688 15.3882 153.963 15.6627 153.963 15.9999V17.5372C155.008 16.3058 157.044 15.0195 159.26 15.0195C162.372 15.0195 164.007 16.5882 164.007 19.8117V29.6156C164.007 29.9529 163.732 30.2274 163.394 30.2274H162.317C161.979 30.2274 161.704 29.9529 161.704 29.6156L161.696 20.5254ZM109.007 19.9999C109.007 13.694 113.66 9.396 119.484 9.396C122.934 9.396 125.355 10.894 126.989 12.9489C127.194 13.2078 127.123 13.5921 126.832 13.7568L125.685 14.3921C125.425 14.5411 125.095 14.4705 124.907 14.2431C123.689 12.7372 121.716 11.6783 119.484 11.6783C115.075 11.6783 111.656 15.1215 111.656 20.0078C111.656 24.8627 115.075 28.3372 119.484 28.3372C121.724 28.3372 123.696 27.3019 124.907 25.7725C125.095 25.5372 125.418 25.4744 125.685 25.6156L126.848 26.2509C127.147 26.4156 127.217 26.8078 127.005 27.0666C125.308 29.1372 122.934 30.6117 119.484 30.6117C113.66 30.6038 109.007 26.3058 109.007 19.9999Z" fill="#1E2457" fill-opacity="0.5"/>
<path d="M20.3148 40C31.3834 40 40.3563 31.0457 40.3563 20C40.3563 8.95431 31.3834 0 20.3148 0C9.24628 0 0.273438 8.95431 0.273438 20C0.273438 31.0457 9.24628 40 20.3148 40Z" fill="#1E2457" fill-opacity="0.5"/>
<path d="M16.5575 33.9059C16.5575 34.3765 16.1881 34.6431 15.7323 34.502C9.67269 32.5726 5.2793 26.902 5.2793 20.2118C5.2793 13.5216 9.67269 7.85099 15.7323 5.92157C16.1881 5.7804 16.5575 6.04706 16.5575 6.51765V7.67843C16.5575 7.99216 16.3139 8.36079 16.0152 8.46275C11.221 10.2196 7.78644 14.8157 7.78644 20.2039C7.78644 25.5922 11.221 30.1882 16.0152 31.9451C16.3139 32.0549 16.5575 32.4157 16.5575 32.7294V33.9059Z" fill="white"/>
<path d="M21.5639 29.5845C21.5639 29.9296 21.2809 30.212 20.9351 30.212H19.6855C19.3396 30.212 19.0567 29.9296 19.0567 29.5845V27.6081C16.3216 27.2394 14.9856 25.71 14.624 23.6316C14.5611 23.2786 14.8441 22.9571 15.2056 22.9571H16.636C16.9347 22.9571 17.1862 23.1688 17.2491 23.4669C17.5163 24.7061 18.2315 25.6551 20.4242 25.6551C22.0433 25.6551 23.1907 24.7531 23.1907 23.4041C23.1907 22.0551 22.5148 21.5453 20.1413 21.1532C16.636 20.6826 14.9777 19.6237 14.9777 16.8786C14.9777 14.761 16.581 13.1139 19.0646 12.761V10.8237C19.0646 10.4786 19.3475 10.1963 19.6933 10.1963H20.943C21.2888 10.1963 21.5717 10.4786 21.5717 10.8237V12.8159C23.5916 13.1767 24.8726 14.3218 25.2892 16.2198C25.3678 16.5806 25.0848 16.9179 24.7155 16.9179H23.3951C23.1121 16.9179 22.8764 16.7296 22.7899 16.4551C22.4362 15.2473 21.5717 14.7296 20.0706 14.7296C18.4122 14.7296 17.5556 15.5296 17.5556 16.6512C17.5556 17.8355 18.0428 18.4316 20.5893 18.8002C24.0317 19.2708 25.8079 20.2512 25.8079 23.1767C25.8079 25.3963 24.1574 27.1924 21.5717 27.6081V29.5845H21.5639Z" fill="white"/>
<path d="M24.8975 34.5018C24.4417 34.643 24.0723 34.3764 24.0723 33.9058V32.745C24.0723 32.3999 24.2845 32.0783 24.6146 31.9607C29.4088 30.2038 32.8433 25.6077 32.8433 20.2195C32.8433 14.8313 29.4088 10.2352 24.6146 8.47832C24.3159 8.36851 24.0723 8.00773 24.0723 7.694V6.53322C24.0723 6.06263 24.4417 5.78813 24.8975 5.93714C30.9571 7.86656 35.3505 13.5371 35.3505 20.2273C35.3426 26.9018 30.9571 32.5646 24.8975 34.5018Z" fill="white"/>
</svg>
